HIERARCHY
ROOT Hips
{
	OFFSET 0.000000 0.000000 0.000000
	CHANNELS 6 Xposition Yposition Zposition Zrotation Yrotation Xrotation 
	JOINT LHipJoint
	{
		OFFSET 0.000000 0.000000 0.000000
		CHANNELS 3 Zrotation Yrotation Xrotation
		JOINT LeftUpLeg
		{
			OFFSET 1.363060 -1.794630 0.839290
			CHANNELS 3 Zrotation Yrotation Xrotation
			JOINT LeftLeg
			{
				OFFSET 2.448110 -6.726130 0.000000
				CHANNELS 3 Zrotation Yrotation Xrotation
				JOINT LeftFoot
				{
					OFFSET 2.562200 -7.039590 0.000000
					CHANNELS 3 Zrotation Yrotation Xrotation
					JOINT LeftToeBase
					{
						OFFSET 0.157640 -0.433110 2.322550
						CHANNELS 3 Zrotation Yrotation Xrotation
						End Site
						{
							OFFSET 0.000000 0.000000 0.000000
						}
					}
				}
			}
		}
	}
	JOINT RHipJoint
	{
		OFFSET 0.000000 0.000000 0.000000
		CHANNELS 3 Zrotation Yrotation Xrotation
		JOINT RightUpLeg
		{
			OFFSET -1.305520 -1.794630 0.839290
			CHANNELS 3 Zrotation Yrotation Xrotation
			JOINT RightLeg
			{
				OFFSET -2.542530 -6.985550 0.000000
				CHANNELS 3 Zrotation Yrotation Xrotation
				JOINT RightFoot
				{
					OFFSET -2.568260 -7.056230 0.000000
					CHANNELS 3 Zrotation Yrotation Xrotation
					JOINT RightToeBase
					{
						OFFSET -0.164730 -0.452590 2.363150
						CHANNELS 3 Zrotation Yrotation Xrotation
						End Site
						{
							OFFSET 0.000000 0.000000 0.000000
						}
					}
				}
			}
		}
	}
	JOINT LowerBack
	{
		OFFSET 0.000000 0.000000 0.000000
		CHANNELS 3 Zrotation Yrotation Xrotation
		JOINT Spine
		{
			OFFSET 0.028270 2.035590 -0.193380
			CHANNELS 3 Zrotation Yrotation Xrotation
			JOINT Spine1
			{
				OFFSET 0.056720 2.048850 -0.042750
				CHANNELS 3 Zrotation Yrotation Xrotation
				JOINT Neck
				{
					OFFSET 0.000000 0.000000 0.000000
					CHANNELS 3 Zrotation Yrotation Xrotation
					JOINT Neck1
					{
						OFFSET -0.054170 1.746240 0.172020
						CHANNELS 3 Zrotation Yrotation Xrotation
						JOINT Head
						{
							OFFSET 0.104070 1.761360 -0.123970
							CHANNELS 3 Zrotation Yrotation Xrotation
							End Site
							{
								OFFSET 0.000000 0.000000 0.000000
							}
						}
					}
				}
				JOINT LeftShoulder
				{
					OFFSET 0.000000 0.000000 0.000000
					CHANNELS 3 Zrotation Yrotation Xrotation
					JOINT LeftArm
					{
						OFFSET 3.362410 1.200890 -0.311210
						CHANNELS 3 Zrotation Yrotation Xrotation
						JOINT LeftForeArm
						{
							OFFSET 4.983000 -0.000000 -0.000000
							CHANNELS 3 Zrotation Yrotation Xrotation
							JOINT LeftHand
							{
								OFFSET 3.483560 -0.000000 -0.000000
								CHANNELS 3 Zrotation Yrotation Xrotation
								JOINT LeftFingerBase
								{
									OFFSET 0.000000 0.000000 0.000000
									CHANNELS 3 Zrotation Yrotation Xrotation
									JOINT LeftHandIndex1
									{
										OFFSET 0.715260 -0.000000 -0.000000
										CHANNELS 3 Zrotation Yrotation Xrotation
										End Site
										{
											OFFSET 0.000000 0.000000 0.000000
										}
									}
								}
								JOINT LThumb
								{
									OFFSET 0.000000 0.000000 0.000000
									CHANNELS 3 Zrotation Yrotation Xrotation
									End Site
									{
										OFFSET 0.000000 0.000000 0.000000
									}
								}
							}
						}
					}
				}
				JOINT RightShoulder
				{
					OFFSET 0.000000 0.000000 0.000000
					CHANNELS 3 Zrotation Yrotation Xrotation
					JOINT RightArm
					{
						OFFSET -3.136600 1.374050 -0.404650
						CHANNELS 3 Zrotation Yrotation Xrotation
						JOINT RightForeArm
						{
							OFFSET -5.241900 -0.000000 -0.000000
							CHANNELS 3 Zrotation Yrotation Xrotation
							JOINT RightHand
							{
								OFFSET -3.444170 -0.000000 -0.000000
								CHANNELS 3 Zrotation Yrotation Xrotation
								JOINT RightFingerBase
								{
									OFFSET 0.000000 0.000000 0.000000
									CHANNELS 3 Zrotation Yrotation Xrotation
									JOINT RightHandIndex1
									{
										OFFSET -0.622530 -0.000000 -0.000000
										CHANNELS 3 Zrotation Yrotation Xrotation
										End Site
										{
											OFFSET 0.000000 0.000000 0.000000
										}
									}
								}
								JOINT RThumb
								{
									OFFSET 0.000000 0.000000 0.000000
									CHANNELS 3 Zrotation Yrotation Xrotation
									End Site
									{
										OFFSET 0.000000 0.000000 0.000000
									}
								}
							}
						}
					}
				}
			}
		}
	}
}
MOTION
Frames: 8
Frame Time: 0.008333
0.143927 16.608996 -0.945211 13.057330 73.177895 21.276253 -9.199013 0.315586 2.790952 -13.188551 -2.945952 -38.133335 -1.816316 0.964406 29.976808 0.835427 4.563678 -2.283283 0.627000 0.000000 -20.899800 11.724349 -4.192046 -0.630229 0.061531 -8.599403 -4.955871 0.636358 -3.535434 44.733905 1.054080 22.759774 9.094200 5.704100 0.000001 -74.024100 -9.975092 1.940071 -4.315678 -2.508519 2.493803 -4.061906 -4.435428 2.345920 -0.529689 5.556287 -2.117768 -7.076811 -1.674077 -0.141455 0.168138 0.000000 0.000000 0.000000 -11.193997 20.201013 2.635648 -69.217046 31.774524 10.561757 -3.907537 -17.057701 -0.009239 -1.498600 7.338719 -0.095664 -0.039429 -0.126516 -0.000000 0.000000 0.000000 0.000000 0.000000 0.000000 0.000000 2.823895 5.202334 -0.900412 50.429104 50.125874 26.212009 0.434777 75.506119 -0.016927 -1.575272 7.618742 -0.109218 -0.031185 -0.504699 -0.000000 0.000000 0.000000 0.000000 0.000000 0.000000 0.000000 
0.284638 16.554290 -0.927482 14.060927 72.645837 21.948663 -9.121426 0.345274 2.567910 -13.935946 -2.589842 -38.361108 -1.764431 1.113920 32.340478 0.935125 4.954494 -3.577369 0.516200 0.000000 -20.592599 11.993139 -4.122510 -0.712022 -1.026241 -8.988724 -6.371311 0.313996 -3.752456 48.154306 0.905636 23.091384 10.887692 6.577200 0.000001 -73.382300 -10.317860 1.862948 -4.041912 -2.587981 2.447320 -4.045024 -4.501032 2.306023 -0.646694 5.716219 -1.952410 -7.035362 -1.752726 -0.147561 0.171295 0.000000 0.000000 0.000000 -11.269242 19.628163 2.719254 -69.229866 30.743685 11.408941 -3.868339 -16.983298 -0.008513 -1.467073 7.269765 -0.092954 -0.035949 -0.120579 -0.000000 0.000000 0.000000 0.000000 0.000000 0.000000 0.000000 3.255148 5.514907 -0.780681 52.107140 49.213853 27.281570 0.479195 74.683155 -0.015061 -1.528052 7.602359 -0.106129 -0.022927 -0.497899 -0.000000 0.000000 0.000000 0.000000 0.000000 0.000000 0.000000 
0.420213 16.496175 -0.911270 14.993527 72.103322 22.546768 -9.038700 0.374139 2.333047 -14.683159 -2.230800 -38.522539 -1.728465 1.254630 34.616302 1.028551 5.264333 -5.039295 0.362100 -0.000000 -20.396501 12.248638 -4.023074 -0.806147 -2.050405 -9.308945 -7.817904 -0.005564 -3.968561 51.615422 0.751591 22.947887 12.471905 7.250101 0.000000 -72.122801 -10.632931 1.784084 -3.726546 -2.661413 2.396971 -4.023730 -4.569267 2.262158 -0.783285 5.864049 -1.778447 -6.995379 -1.838481 -0.154123 0.173014 0.000000 0.000000 0.000000 -11.385718 19.006398 2.806971 -69.171166 29.652556 12.409985 -3.829856 -16.993835 -0.007943 -1.504642 7.204429 -0.094644 -0.032576 -0.114220 -0.000000 0.000000 0.000000 0.000000 0.000000 0.000000 0.000000 3.705357 5.840918 -0.656832 53.736004 48.255381 28.268382 0.526293 73.768491 -0.013098 -1.447518 7.601577 -0.100649 -0.015848 -0.491096 -0.000000 0.000000 0.000000 0.000000 0.000000 0.000000 0.000000 
0.550837 16.435689 -0.896748 15.848350 71.554137 23.063843 -8.953381 0.404129 2.089285 -15.421697 -1.872036 -38.602842 -1.707131 1.385727 36.767640 1.117516 5.509899 -6.620284 0.173300 -0.000000 -20.290500 12.489884 -3.895992 -0.914374 -3.004486 -9.570934 -9.286010 -0.323896 -4.187077 55.091799 0.595498 22.233225 13.762729 7.610600 -0.000000 -70.581000 -10.915380 1.704510 -3.370873 -2.728090 2.343185 -3.998381 -4.641482 2.214556 -0.939404 6.003114 -1.590248 -6.951729 -1.931937 -0.161253 0.174679 0.000000 0.000000 0.000000 -11.546026 18.331961 2.897341 -69.024335 28.498590 13.578799 -3.793074 -17.080887 -0.007527 -1.612379 7.146607 -0.100833 -0.029483 -0.107443 -0.000000 0.000000 0.000000 0.000000 0.000000 0.000000 0.000000 4.179699 6.182207 -0.528993 55.307440 47.241664 29.160697 0.576317 72.761942 -0.011117 -1.341118 7.622493 -0.093679 -0.009905 -0.484392 -0.000000 0.000000 0.000000 0.000000 0.000000 0.000000 0.000000 
0.676896 16.373944 -0.883929 16.632572 71.003350 23.508246 -8.866478 0.436696 1.840251 -16.147539 -1.521040 -38.591154 -1.698046 1.506259 38.763507 1.205245 5.718812 -8.265507 -0.040400 0.000000 -20.244200 12.718012 -3.743147 -1.037576 -3.890171 -9.788559 -10.770493 -0.644046 -4.410546 58.561645 0.437105 20.889618 14.684686 7.578199 -0.000000 -68.933800 -11.165702 1.623673 -2.978040 -2.788246 2.285257 -3.967993 -4.717820 2.162384 -1.108016 6.138906 -1.390004 -6.904957 -2.033040 -0.168920 0.176036 0.000000 0.000000 0.000000 -11.735776 17.624566 2.990237 -68.778061 27.247151 14.949013 -3.758117 -17.213588 -0.007247 -1.782994 7.096274 -0.110921 -0.026877 -0.100176 -0.000000 0.000000 0.000000 0.000000 0.000000 0.000000 0.000000 4.684675 6.532170 -0.399354 56.815251 46.173623 29.953032 0.629282 71.659419 -0.009213 -1.222880 7.671633 -0.086019 -0.004930 -0.477860 -0.000000 0.000000 0.000000 0.000000 0.000000 0.000000 0.000000 
0.798843 16.312371 -0.873059 17.328354 70.457143 23.861823 -8.782433 0.471743 1.587916 -16.845811 -1.176272 -38.483283 -1.697533 1.616192 40.586337 1.294308 5.916034 -9.921857 -0.270600 -0.000000 -20.220800 12.930174 -3.566631 -1.175051 -4.694675 -9.965690 -12.258558 -0.968497 -4.638598 61.991229 0.272287 18.898270 15.183971 7.123900 -0.000000 -67.385300 -11.372130 1.544474 -2.550549 -2.839656 2.225095 -3.934443 -4.799403 2.107246 -1.294304 6.270327 -1.169009 -6.845029 -2.141596 -0.177249 0.180024 0.000000 0.000000 0.000000 -11.963433 16.854372 3.084194 -68.425466 25.927465 16.470865 -3.728025 -17.395479 -0.007086 -2.005175 7.050548 -0.124003 -0.025043 -0.092500 0.000000 0.000000 0.000000 0.000000 0.000000 0.000000 0.000000 5.215993 6.893931 -0.267471 58.260978 45.027498 30.631704 0.685079 70.456599 -0.007460 -1.105404 7.749941 -0.078568 -0.000729 -0.471459 -0.000000 0.000000 0.000000 0.000000 0.000000 0.000000 0.000000 
0.917231 16.252279 -0.864044 17.949846 69.922714 24.140208 -8.701550 0.509221 1.335629 -17.514337 -0.846099 -38.277703 -1.702072 1.714965 42.221912 1.387774 6.132261 -11.537312 -0.510800 -0.000000 -20.183300 13.127606 -3.367835 -1.325656 -5.421870 -10.112812 -13.746220 -1.297893 -4.870876 65.351956 0.095300 16.301332 15.208916 6.276100 -0.000000 -65.824700 -11.537091 1.466040 -2.093625 -2.882733 2.161939 -3.896616 -4.885100 2.048267 -1.489247 6.400849 -0.934809 -6.775034 -2.256389 -0.186077 0.185763 0.000000 0.000000 0.000000 -12.205408 16.043613 3.179908 -67.967716 24.501184 18.148777 -3.703544 -17.588230 -0.007010 -2.256878 7.001376 -0.138682 -0.024238 -0.084367 0.000000 0.000000 0.000000 0.000000 0.000000 0.000000 0.000000 5.773916 7.254110 -0.136747 59.645856 43.805723 31.192707 0.743310 69.141380 -0.005980 -1.009189 7.861453 -0.072829 0.002992 -0.465153 -0.000000 0.000000 0.000000 0.000000 0.000000 0.000000 0.000000 
1.032688 16.195037 -0.856773 18.498860 69.408206 24.347314 -8.625752 0.548433 1.086202 -18.145723 -0.534253 -37.977637 -1.708185 1.802528 43.665095 1.487165 6.389230 -13.068461 -0.756800 0.000000 -20.101600 13.309173 -3.149126 -1.486899 -6.067571 -10.234596 -15.225916 -1.630159 -5.105298 68.606110 -0.099834 13.195144 14.726862 5.120600 0.000000 -64.081101 -11.656986 1.389306 -1.613544 -2.916674 2.096466 -3.855218 -4.974133 1.985926 -1.690581 6.529727 -0.690031 -6.693046 -2.375854 -0.195296 0.193956 0.000000 0.000000 0.000000 -12.450077 15.186626 3.277179 -67.411589 22.968754 19.930682 -3.686976 -17.774003 -0.006984 -2.509753 6.938177 -0.152753 -0.024707 -0.075858 0.000000 0.000000 0.000000 0.000000 0.000000 0.000000 0.000000 6.351095 7.603556 -0.008929 60.976154 42.497959 31.625726 0.803462 67.699776 -0.004855 -0.952354 8.006394 -0.070098 0.006507 -0.458815 -0.000000 0.000000 0.000000 0.000000 0.000000 0.000000 0.000000 
